# xmcd CD database file
#
# Track frame offsets:
#        150
#        17758
#        37044
#        54846
#        72122
#        89347
#
# Disc length: 1387 seconds
#
# Revision: 0
# Processed by: cddbd v1.5.2PL0 Copyright (c) Steve Scherf et al.
# Submitted via: CUERipper 2.1.5
#
DISCID=44056906
DTITLE=Sarah Orchard - Taking on Water
DYEAR=2017
DGENRE=Country
TTITLE0=Taking on Water
TTITLE1=Found in You
TTITLE2=Orbit (feat. Ryan Orchard)
TTITLE3=This Way (live)
TTITLE4=The Shape of You (live)
TTITLE5=Run (live)
EXTD=
EXTT0=
EXTT1=
EXTT2=
EXTT3=
EXTT4=
EXTT5=
PLAYORDER=
